<?xml version="1.0" encoding="UTF-8" standalone="no"?>
<svg
   width="500"
   zoomAndPan="magnify"
   viewBox="0 0 375 374.999991"
   height="500"
   preserveAspectRatio="xMidYMid meet"
   version="1.2"
   id="svg3"
   sodipodi:docname="icon.svg"
   inkscape:version="1.4.2 (ebf0e940d0, 2025-05-08)"
   xml:space="preserve"
   inkscape:export-filename="icon.png"
   inkscape:export-xdpi="96"
   inkscape:export-ydpi="96"
   xmlns:inkscape="http://www.inkscape.org/namespaces/inkscape"
   xmlns:sodipodi="http://sodipodi.sourceforge.net/DTD/sodipodi-0.dtd"
   xmlns:xlink="http://www.w3.org/1999/xlink"
   xmlns="http://www.w3.org/2000/svg"
   xmlns:svg="http://www.w3.org/2000/svg"><sodipodi:namedview
     id="namedview3"
     pagecolor="#ffffff"
     bordercolor="#000000"
     borderopacity="0.25"
     inkscape:showpageshadow="2"
     inkscape:pageopacity="0.0"
     inkscape:pagecheckerboard="true"
     inkscape:deskcolor="#d1d1d1"
     inkscape:zoom="1.5174512"
     inkscape:cx="114.66596"
     inkscape:cy="242.84142"
     inkscape:window-width="2327"
     inkscape:window-height="1282"
     inkscape:window-x="0"
     inkscape:window-y="0"
     inkscape:window-maximized="1"
     inkscape:current-layer="g2"
     inkscape:export-bgcolor="#ffffff00"
     showguides="false" /><defs
     id="defs1"><linearGradient
       id="linearGradient11"
       inkscape:collect="always"><stop
         style="stop-color:#ffdb67;stop-opacity:1;"
         offset="0"
         id="stop6" /><stop
         style="stop-color:#ffedb4;stop-opacity:1;"
         offset="0.03137738"
         id="stop7" /><stop
         style="stop-color:#ffc60a;stop-opacity:1;"
         offset="0.15894192"
         id="stop8" /><stop
         style="stop-color:#ffedb4;stop-opacity:1;"
         offset="0.26115829"
         id="stop9" /><stop
         style="stop-color:#ffc60a;stop-opacity:1;"
         offset="0.35299763"
         id="stop10" /></linearGradient><linearGradient
       id="linearGradient32"
       inkscape:collect="always"><stop
         style="stop-color:#60101b;stop-opacity:1;"
         offset="0"
         id="stop32" /><stop
         style="stop-color:#a92133;stop-opacity:1;"
         offset="1"
         id="stop33" /></linearGradient><linearGradient
       id="linearGradient30"
       inkscape:collect="always"><stop
         style="stop-color:#ffdb67;stop-opacity:1;"
         offset="0"
         id="stop30" /><stop
         style="stop-color:#ffedb4;stop-opacity:1;"
         offset="0.03137738"
         id="stop4" /><stop
         style="stop-color:#ffc60a;stop-opacity:1;"
         offset="0.15894192"
         id="stop1" /><stop
         style="stop-color:#ffedb4;stop-opacity:1;"
         offset="0.26115829"
         id="stop2" /><stop
         style="stop-color:#ffc60a;stop-opacity:1;"
         offset="0.35299763"
         id="stop3" /><stop
         style="stop-color:#ffdb67;stop-opacity:0.16775726;"
         offset="1"
         id="stop31" /></linearGradient><inkscape:path-effect
       effect="spiro"
       id="path-effect30"
       is_visible="true"
       lpeversion="1" /><clipPath
       id="1ef7cf14a9"><path
         d="M 76 57 L 358 57 L 358 331.945312 L 76 331.945312 Z M 76 57 "
         id="path1" /></clipPath><linearGradient
       inkscape:collect="always"
       xlink:href="#linearGradient30"
       id="linearGradient31"
       x1="275.59802"
       y1="136.47443"
       x2="184.27499"
       y2="202.07103"
       gradientUnits="userSpaceOnUse"
       gradientTransform="matrix(1.1302027,0,0,1.1302027,-9.1956917,-7.2267747)" /><linearGradient
       inkscape:collect="always"
       xlink:href="#linearGradient32"
       id="linearGradient33"
       x1="18.708244"
       y1="191.12622"
       x2="381.42065"
       y2="191.12622"
       gradientUnits="userSpaceOnUse" /><linearGradient
       inkscape:collect="always"
       xlink:href="#linearGradient11"
       id="linearGradient6"
       x1="117.90832"
       y1="312.48752"
       x2="255.80751"
       y2="312.48752"
       gradientUnits="userSpaceOnUse"
       spreadMethod="reflect" /></defs><g
     id="6fdc65a591"><g
       id="g31"
       transform="translate(-12.56445,-9.7045763)"><g
         clip-rule="nonzero"
         clip-path="url(#1ef7cf14a9)"
         id="g2"
         style="fill:url(#linearGradient6);fill-opacity:1"
         transform="matrix(1.0746854,0,0,1.0746854,-1.3972325,-4.3200843)"><rect
           style="fill:#2e090e;fill-opacity:1;stroke:#000000;stroke-width:0"
           id="rect29"
           width="24.289375"
           height="13.28052"
           x="117.90832"
           y="305.84726" /><rect
           style="fill:#2e090e;fill-opacity:1;stroke:#000000;stroke-width:0"
           id="rect29-5"
           width="25.397614"
           height="12.993079"
           x="230.4099"
           y="305.9296"
           ry="0" /></g><path
         id="path3"
         style="fill:url(#linearGradient33);fill-rule:nonzero;stroke:none;stroke-width:1.07469;stroke-opacity:0.692356"
         d="M 80.60371,134.9303 C 55.757985,120.1115 33.021288,97.007892 18.940761,71.981222 c -2.974283,-18.765266 23.384108,0.486662 33.463527,0.987084 16.978399,5.26727 34.159438,10.061507 51.698162,13.063372 0,0 -14.554561,50.106022 -23.49874,48.898622 z m 70.70513,19.26414 H 183.5452 V 135.6813 h -32.23636 z m 59.00695,0 h 35.93899 V 135.6813 h -35.93899 z m 35.93899,21.70361 H 151.30884 V 324.19624 H 125.36527 V 175.89805 H 83.041134 V 154.19444 H 125.36527 V 135.6813 L 80.597904,135.02402 V 86.023283 c 59.690576,-0.219823 119.398346,0.449319 179.077666,-0.35232 40.78092,-0.135381 79.56536,-14.317608 117.35695,-27.879358 13.33332,6.922865 -7.49965,26.185435 -12.52161,35.693077 -12.31406,16.329198 -26.37799,32.004878 -44.32796,42.241228 -15.52104,-0.10199 -31.04391,-0.0164 -46.56568,-0.0446 v 18.51314 h 44.04532 v 21.70361 h -44.04532 l -0.0939,148.47253 c -9.11943,-0.003 -18.18177,0.007 -27.29419,-0.003 z"
         sodipodi:nodetypes="cccccccccccccccccccccccccccccccccccccc" /><path
         style="opacity:1;fill:url(#linearGradient31);fill-opacity:1;stroke:none;stroke-width:1.49999998;stroke-opacity:0.33367366;stroke-dasharray:none"
         id="path30"
         d="m 301.45809,55.504037 c -3.33629,0.606703 -6.51214,1.811638 -9.63325,3.101378 -5.54081,2.399604 -10.68236,5.610471 -15.33944,9.448739 -0.98387,0.810888 -1.92049,1.677462 -2.88073,2.516192 -3.73538,3.573745 -7.11321,7.59874 -9.10736,12.42528 -1.35144,3.270971 -1.33631,4.240243 -1.96312,7.701529 -0.59773,5.737189 0.31667,11.426115 2.18884,16.856995 1.22167,3.54384 2.34121,5.74421 3.91446,9.16082 5.28994,10.59767 10.83105,21.06319 15.99582,31.72397 3.54368,7.54567 7.01989,15.14448 9.72876,23.03828 1.61582,4.70857 1.92523,6.12494 3.2267,10.87391 1.52813,6.06373 2.92802,12.29969 1.90141,18.57512 -0.56732,3.4679 -1.03025,4.00997 -2.4006,7.15526 -0.69336,0.9804 -1.29212,2.03508 -2.08008,2.9412 -3.60038,4.14028 -8.89244,6.48795 -14.00878,8.11623 -1.48017,0.47105 -2.99577,0.82251 -4.49366,1.23377 -9.75459,2.3812 -19.79134,2.40032 -29.75153,1.90181 -10.2207,-0.60744 -20.26726,-2.60758 -30.27116,-4.67194 -8.31263,-1.72637 -16.66013,-3.45286 -25.14542,-4.06158 -1.59137,-0.11417 -3.1875,-0.14734 -4.78126,-0.221 -5.68704,-0.0347 -11.43506,-0.0567 -17.0348,1.08483 -3.23981,0.6605 -4.12016,1.06532 -7.21222,2.11414 -4.08418,1.68337 -7.98947,3.96169 -10.48965,7.72651 -1.54366,2.32447 -1.45524,2.85651 -2.15716,5.50095 -0.0256,0.99307 -0.15386,1.98882 -0.0767,2.97923 0.34188,4.39132 2.66276,8.37115 5.58133,11.55709 0.87112,0.95091 1.85215,1.79496 2.77824,2.69244 1.14133,0.88491 2.24396,1.82213 3.42399,2.6547 1.311,0.92498 2.65726,1.80319 4.04227,2.61314 4.84008,2.83047 9.71227,5.60743 14.62767,8.305 1.58798,0.87148 3.24297,1.61514 4.87613,2.39871 3.41901,1.64033 6.49609,3.01967 9.94691,4.59014 9.75056,4.32001 19.51865,8.59986 29.26666,12.92574 7.87625,3.47001 15.72421,7.00398 23.60756,10.45777 l -9.41461,-7.45122 v 0 c -7.80287,-3.39921 -15.57795,-6.86184 -23.37281,-10.27937 -9.72808,-4.29758 -19.47853,-8.54444 -29.18917,-12.88122 -3.43577,-1.57297 -6.52886,-2.96282 -9.92472,-4.62277 -7.75263,-4.68304 -4.53782,-1.78435 0.55501,0.82506 -2.83857,-1.39963 -7.13451,-4.57587 -10.13317,-7.51755 -2.85975,-2.91948 -5.28121,-6.5861 -5.80842,-10.72738 -0.11434,-0.89825 -0.0363,-1.81063 -0.0544,-2.71596 0.20297,-0.87044 0.2997,-1.77271 0.60893,-2.61131 1.83957,-4.98856 6.60545,-7.76374 11.2558,-9.67011 3.05165,-1.00434 3.84405,-1.3706 7.04067,-1.98695 5.5117,-1.06269 11.16327,-1.04687 16.75122,-0.99169 1.57288,0.0825 3.14831,0.1255 4.71861,0.24742 8.44376,0.65559 16.74592,2.41388 25.02385,4.12269 10.03826,2.06091 20.12931,4.00136 30.38813,4.5308 10.06768,0.43016 20.21004,0.342 30.04625,-2.15067 1.52547,-0.43131 3.06939,-0.80199 4.57641,-1.29393 5.35037,-1.74653 10.81885,-4.2552 14.54666,-8.63169 0.83071,-0.97525 1.45908,-2.10617 2.18861,-3.15925 1.41593,-3.30263 1.9107,-3.91204 2.49802,-7.53747 1.0455,-6.45358 -0.36588,-12.85338 -1.97893,-19.08072 -1.30835,-4.74058 -1.66352,-6.30213 -3.27369,-11.0021 -2.72111,-7.94269 -6.22472,-15.58161 -9.77191,-23.18081 -5.07818,-10.60868 -10.45873,-21.06184 -15.72149,-31.57873 -1.54871,-3.34157 -2.64844,-5.50131 -3.87153,-8.95759 -1.85661,-5.24645 -2.83339,-10.73747 -2.32449,-16.306546 0.55875,-3.321609 0.52559,-4.253069 1.8079,-7.390305 1.91741,-4.691093 5.24108,-8.568143 8.87754,-12.01509 0.94819,-0.818722 1.87244,-1.666018 2.84459,-2.456165 4.62737,-3.761089 9.75837,-6.871446 15.31832,-9.045219 3.14951,-1.125213 6.43281,-2.348585 9.81629,-2.414739 z"
         sodipodi:nodetypes="ccscscsccscscsscccscscsccscssssccccsccsssscscscscccsscscsccscscsccc" /></g></g></svg>
